<svg width="18" height="18" viewBox="0 0 18 18" fill="none" xmlns="http://www.w3.org/2000/svg">
<g id="cloud-computing 1" clip-path="url(#clip0_463_1564)">
<g id="Group">
<g id="Group_2">
<g id="Group_3">
<path id="Vector" d="M3.00275 6.61659C3.83467 3.30249 7.19562 1.2903 10.5097 2.12221C13.0996 2.77236 14.9802 5.01075 15.1739 7.67394C17.0128 7.9772 18.2578 9.71376 17.9545 11.5527C17.6849 13.1875 16.2684 14.3848 14.6115 14.3782H11.7993V13.2533H14.6115C15.854 13.2533 16.8612 12.2461 16.8612 11.0036C16.8612 9.76108 15.854 8.75382 14.6115 8.75382C14.3008 8.75382 14.049 8.50202 14.049 8.19138C14.0519 5.39574 11.7878 3.12715 8.99216 3.12437C6.57213 3.12195 4.48889 4.83281 4.02076 7.20711C3.97454 7.44418 3.78215 7.62529 3.54269 7.65706C2.00506 7.87603 0.936106 9.30002 1.15504 10.8376C1.35164 12.2183 2.53051 13.2464 3.92515 13.2533H6.1749V14.3782H3.92515C1.75076 14.3716 -0.00657654 12.6036 3.24249e-05 10.4292C0.00551605 8.61922 1.24443 7.04611 3.00275 6.61659Z" fill="black"/>
<path id="Vector_2" d="M9.38648 8.91698L11.6362 11.1667L10.8432 11.9598L9.54958 10.6718V16.0656H8.42471V10.6718L7.13672 11.9598L6.34369 11.1667L8.59344 8.91698C8.81282 8.6989 9.16709 8.6989 9.38648 8.91698Z" fill="black"/>
</g>
</g>
</g>
</g>
<defs>
<clipPath id="clip0_463_1564">
<rect width="18" height="18" fill="white" transform="matrix(-1 0 0 1 18 0)"/>
</clipPath>
</defs>
</svg>
